<mxfile host="app.diagrams.net" modified="2023-04-12T16:02:49.863Z" agent="Mozilla/5.0 (Windows NT 10.0; Win64; x64) AppleWebKit/537.36 (KHTML, like Gecko) Chrome/111.0.0.0 Safari/537.36" etag="B7iCwt5v9fOSldhSZgLJ" version="21.1.5" type="github">
  <diagram name="Page-1" id="c87MhnFZS0D61jUFGh3l">
    <mxGraphModel dx="3804" dy="1156" grid="1" gridSize="10" guides="1" tooltips="1" connect="1" arrows="1" fold="1" page="1" pageScale="1" pageWidth="850" pageHeight="1100" math="0" shadow="0">
      <root>
        <mxCell id="0" />
        <mxCell id="1" parent="0" />
        <mxCell id="kmZ2VakQxDrix2jegZ0D-40" style="edgeStyle=orthogonalEdgeStyle;rounded=0;orthogonalLoop=1;jettySize=auto;html=1;" edge="1" parent="1" source="kmZ2VakQxDrix2jegZ0D-27" target="kmZ2VakQxDrix2jegZ0D-38">
          <mxGeometry relative="1" as="geometry" />
        </mxCell>
        <mxCell id="kmZ2VakQxDrix2jegZ0D-44" style="edgeStyle=orthogonalEdgeStyle;rounded=0;orthogonalLoop=1;jettySize=auto;html=1;exitX=0.5;exitY=1;exitDx=0;exitDy=0;entryX=0.5;entryY=0;entryDx=0;entryDy=0;" edge="1" parent="1" source="kmZ2VakQxDrix2jegZ0D-27" target="kmZ2VakQxDrix2jegZ0D-43">
          <mxGeometry relative="1" as="geometry" />
        </mxCell>
        <mxCell id="kmZ2VakQxDrix2jegZ0D-27" value="PUBLISHER" style="whiteSpace=wrap;html=1;align=center;" vertex="1" parent="1">
          <mxGeometry x="-220" y="390" width="100" height="40" as="geometry" />
        </mxCell>
        <mxCell id="kmZ2VakQxDrix2jegZ0D-28" value="PRIVILEGES" style="whiteSpace=wrap;html=1;align=center;" vertex="1" parent="1">
          <mxGeometry x="400" y="390" width="100" height="40" as="geometry" />
        </mxCell>
        <mxCell id="kmZ2VakQxDrix2jegZ0D-49" style="rounded=0;orthogonalLoop=1;jettySize=auto;html=1;exitX=0.5;exitY=1;exitDx=0;exitDy=0;endArrow=none;endFill=0;" edge="1" parent="1" source="kmZ2VakQxDrix2jegZ0D-30">
          <mxGeometry relative="1" as="geometry">
            <mxPoint x="-170" y="390" as="targetPoint" />
          </mxGeometry>
        </mxCell>
        <mxCell id="kmZ2VakQxDrix2jegZ0D-30" value="name" style="ellipse;whiteSpace=wrap;html=1;align=center;" vertex="1" parent="1">
          <mxGeometry x="-277" y="277" width="100" height="40" as="geometry" />
        </mxCell>
        <mxCell id="kmZ2VakQxDrix2jegZ0D-47" style="rounded=0;orthogonalLoop=1;jettySize=auto;html=1;exitX=0.5;exitY=1;exitDx=0;exitDy=0;entryX=0.5;entryY=0;entryDx=0;entryDy=0;endArrow=none;endFill=0;" edge="1" parent="1" source="kmZ2VakQxDrix2jegZ0D-31" target="kmZ2VakQxDrix2jegZ0D-27">
          <mxGeometry relative="1" as="geometry" />
        </mxCell>
        <mxCell id="kmZ2VakQxDrix2jegZ0D-31" value="id" style="ellipse;whiteSpace=wrap;html=1;align=center;fontStyle=4;" vertex="1" parent="1">
          <mxGeometry x="-163" y="278" width="100" height="40" as="geometry" />
        </mxCell>
        <mxCell id="kmZ2VakQxDrix2jegZ0D-48" style="rounded=0;orthogonalLoop=1;jettySize=auto;html=1;exitX=0.5;exitY=1;exitDx=0;exitDy=0;endArrow=none;endFill=0;entryX=0.5;entryY=0;entryDx=0;entryDy=0;" edge="1" parent="1" source="kmZ2VakQxDrix2jegZ0D-33" target="kmZ2VakQxDrix2jegZ0D-27">
          <mxGeometry relative="1" as="geometry" />
        </mxCell>
        <mxCell id="kmZ2VakQxDrix2jegZ0D-33" value="address" style="ellipse;whiteSpace=wrap;html=1;align=center;" vertex="1" parent="1">
          <mxGeometry x="-110" y="321" width="100" height="40" as="geometry" />
        </mxCell>
        <mxCell id="kmZ2VakQxDrix2jegZ0D-50" style="rounded=0;orthogonalLoop=1;jettySize=auto;html=1;exitX=0.5;exitY=1;exitDx=0;exitDy=0;endArrow=none;endFill=0;entryX=0.5;entryY=0;entryDx=0;entryDy=0;" edge="1" parent="1" source="kmZ2VakQxDrix2jegZ0D-34" target="kmZ2VakQxDrix2jegZ0D-27">
          <mxGeometry relative="1" as="geometry">
            <mxPoint x="-160" y="390" as="targetPoint" />
          </mxGeometry>
        </mxCell>
        <mxCell id="kmZ2VakQxDrix2jegZ0D-34" value="dop" style="ellipse;whiteSpace=wrap;html=1;align=center;" vertex="1" parent="1">
          <mxGeometry x="-334" y="324" width="100" height="40" as="geometry" />
        </mxCell>
        <mxCell id="kmZ2VakQxDrix2jegZ0D-35" style="edgeStyle=orthogonalEdgeStyle;rounded=0;orthogonalLoop=1;jettySize=auto;html=1;exitX=0.5;exitY=1;exitDx=0;exitDy=0;" edge="1" parent="1" source="kmZ2VakQxDrix2jegZ0D-33" target="kmZ2VakQxDrix2jegZ0D-33">
          <mxGeometry relative="1" as="geometry" />
        </mxCell>
        <mxCell id="kmZ2VakQxDrix2jegZ0D-46" style="edgeStyle=orthogonalEdgeStyle;rounded=0;orthogonalLoop=1;jettySize=auto;html=1;exitX=0.5;exitY=1;exitDx=0;exitDy=0;entryX=0.5;entryY=0;entryDx=0;entryDy=0;endArrow=none;endFill=0;" edge="1" parent="1" source="kmZ2VakQxDrix2jegZ0D-37" target="kmZ2VakQxDrix2jegZ0D-27">
          <mxGeometry relative="1" as="geometry" />
        </mxCell>
        <mxCell id="kmZ2VakQxDrix2jegZ0D-37" value="contact#" style="ellipse;whiteSpace=wrap;html=1;align=center;" vertex="1" parent="1">
          <mxGeometry x="-220" y="230" width="100" height="40" as="geometry" />
        </mxCell>
        <mxCell id="kmZ2VakQxDrix2jegZ0D-39" style="edgeStyle=orthogonalEdgeStyle;rounded=0;orthogonalLoop=1;jettySize=auto;html=1;" edge="1" parent="1" source="kmZ2VakQxDrix2jegZ0D-38" target="kmZ2VakQxDrix2jegZ0D-28">
          <mxGeometry relative="1" as="geometry" />
        </mxCell>
        <mxCell id="kmZ2VakQxDrix2jegZ0D-38" value="has" style="shape=rhombus;perimeter=rhombusPerimeter;whiteSpace=wrap;html=1;align=center;" vertex="1" parent="1">
          <mxGeometry x="60" y="380" width="120" height="60" as="geometry" />
        </mxCell>
        <mxCell id="kmZ2VakQxDrix2jegZ0D-41" value="GROUP" style="whiteSpace=wrap;html=1;align=center;" vertex="1" parent="1">
          <mxGeometry x="-220" y="806" width="100" height="40" as="geometry" />
        </mxCell>
        <mxCell id="kmZ2VakQxDrix2jegZ0D-45" style="edgeStyle=orthogonalEdgeStyle;rounded=0;orthogonalLoop=1;jettySize=auto;html=1;" edge="1" parent="1" source="kmZ2VakQxDrix2jegZ0D-43" target="kmZ2VakQxDrix2jegZ0D-41">
          <mxGeometry relative="1" as="geometry" />
        </mxCell>
        <mxCell id="kmZ2VakQxDrix2jegZ0D-43" value="belongs_to" style="shape=rhombus;perimeter=rhombusPerimeter;whiteSpace=wrap;html=1;align=center;" vertex="1" parent="1">
          <mxGeometry x="-230" y="590" width="120" height="60" as="geometry" />
        </mxCell>
      </root>
    </mxGraphModel>
  </diagram>
</mxfile>
